<?xml version="1.0" standalone="no"?>
<!DOCTYPE svg PUBLIC "-//W3C//DTD SVG 20010904//EN"
 "http://www.w3.org/TR/2001/REC-SVG-20010904/DTD/svg10.dtd">
<svg version="1.0" xmlns="http://www.w3.org/2000/svg"
 width="450.000000pt" height="312.000000pt" viewBox="0 0 450.000000 312.000000"
 preserveAspectRatio="xMidYMid meet">
<metadata>
Created by potrace 1.16, written by Peter Selinger 2001-2019
</metadata>
<g transform="translate(0.000000,312.000000) scale(0.100000,-0.100000)"
fill="#000000" stroke="none">
<path d="M2255 2854 c-16 -2 -70 -9 -120 -15 -115 -14 -242 -41 -378 -80 -112
-33 -142 -51 -41 -25 243 62 458 88 734 90 285 1 409 -16 648 -91 45 -14 82
-29 82 -34 0 -4 -41 -5 -90 -2 -121 7 -325 -12 -490 -47 -203 -44 -427 -121
-413 -143 4 -6 0 -8 -11 -4 -10 4 -39 -4 -69 -19 -71 -36 -207 -115 -207 -120
0 -2 46 19 102 47 132 66 297 131 443 172 63 19 112 37 108 42 -5 4 -3 5 4 1
7 -3 58 3 115 14 225 44 530 43 653 -3 53 -19 218 -133 294 -204 267 -245 400
-503 361 -703 -20 -105 -46 -153 -100 -185 -27 -16 -47 -32 -44 -37 3 -4 -3
-5 -12 -1 -13 5 -15 3 -9 -7 5 -9 4 -11 -3 -6 -6 4 -37 -1 -69 -10 -130 -38
-301 0 -566 125 -77 36 -88 39 -116 28 -17 -6 -31 -14 -31 -17 0 -16 228 -129
330 -163 129 -43 309 -60 393 -36 51 14 58 4 22 -27 -82 -68 -159 -98 -288
-115 -69 -9 -90 -7 -165 12 -100 25 -114 31 -242 112 -101 64 -187 127 -259
189 -39 33 -81 52 -67 30 3 -5 -8 -6 -25 -4 -16 2 -29 0 -29 -5 0 -11 90 -98
150 -144 25 -18 47 -37 50 -40 9 -12 174 -116 218 -138 107 -54 248 -91 346
-91 108 0 271 59 338 122 15 14 28 23 28 20 0 -13 97 99 121 139 13 22 45 66
71 97 168 201 180 419 34 637 -119 179 -346 344 -566 413 -36 11 -89 27 -118
36 -29 9 -58 14 -64 10 -6 -4 -8 -3 -5 3 12 19 -196 94 -353 127 -179 37 -264
47 -460 51 -113 2 -218 2 -235 -1z m1385 -332 c118 -65 201 -123 276 -194 189
-180 238 -360 152 -560 -11 -26 -24 -48 -29 -48 -5 0 -9 29 -9 64 0 116 -89
353 -166 443 -13 15 -24 33 -24 38 0 15 -187 206 -245 251 -27 21 -54 42 -60
47 -19 18 40 -5 105 -41z"/>
<path d="M1545 2206 c-5 -3 -31 -7 -56 -11 -46 -6 -47 -7 -68 -63 -56 -156
-76 -323 -49 -414 14 -49 52 -89 111 -117 54 -26 124 -40 113 -23 -5 8 -2 10
8 6 31 -12 41 38 27 139 -11 84 -10 98 8 160 19 66 102 230 121 242 15 9 12
45 -6 62 -11 12 -41 17 -107 19 -51 2 -96 2 -102 0z"/>
<path d="M1987 2199 c-108 -25 -189 -104 -254 -245 -30 -65 -35 -154 -14 -229
22 -75 97 -146 178 -169 79 -22 137 -12 267 43 225 96 521 171 678 171 32 0
101 -11 155 -25 90 -23 99 -23 110 -8 7 8 14 20 15 25 3 9 95 15 372 22 92 3
170 6 172 8 1 2 -32 14 -74 27 -240 71 -303 94 -291 102 8 5 37 9 64 9 28 1
82 7 120 14 l70 13 -40 11 c-22 6 -101 23 -175 38 -205 40 -419 81 -500 94
-30 5 -148 24 -261 44 -223 38 -450 67 -514 65 -22 -1 -57 -5 -78 -10z"/>
<path d="M1200 2136 c-70 -19 -127 -57 -145 -94 -14 -31 -14 -42 0 -121 35
-194 95 -335 155 -366 59 -30 145 -12 157 33 6 24 -6 51 -63 152 -22 39 -25
53 -20 105 3 33 12 78 20 100 8 22 20 69 27 104 13 62 13 64 -10 82 -26 22
-56 23 -121 5z"/>
<path d="M864 1994 c-50 -34 -96 -83 -88 -95 3 -5 0 -8 -7 -7 -21 5 -41 -71
-34 -125 8 -63 34 -129 48 -120 6 3 7 1 3 -6 -10 -15 62 -133 76 -125 6 4 8 3
5 -3 -7 -11 34 -59 73 -86 48 -34 175 -13 186 30 9 36 -3 70 -55 147 -55 81
-67 123 -81 285 -6 63 -13 118 -16 122 -11 18 -72 8 -110 -17z"/>
<path d="M2467 1671 c-44 -15 -75 -30 -70 -35 4 -5 3 -6 -4 -2 -13 7 -113 -24
-113 -35 0 -4 54 -10 120 -14 135 -8 131 -9 167 68 l23 47 -23 -1 c-12 0 -57
-13 -100 -28z"/>
<path d="M625 1649 c-52 -29 -114 -126 -115 -180 0 -14 14 -47 30 -73 88 -138
257 -262 324 -236 48 18 136 130 136 173 0 19 -22 37 -51 42 -12 3 -26 9 -29
15 -4 6 -13 10 -20 8 -8 -2 -14 2 -15 7 0 6 -15 26 -33 45 -37 39 -102 133
-102 149 0 15 -65 61 -86 61 -10 0 -28 -5 -39 -11z"/>
<path d="M2257 1553 c-9 -14 9 -37 22 -29 7 4 10 2 9 -5 -2 -6 24 -23 57 -36
217 -87 352 -169 386 -233 52 -96 -13 -409 -136 -664 -42 -85 -43 -89 -15 -56
91 105 220 478 220 637 0 78 -16 118 -65 161 -68 60 -184 134 -197 126 -6 -4
-8 -3 -4 4 11 18 -156 95 -218 100 -29 2 -56 0 -59 -5z"/>
<path d="M2050 1521 c-22 -15 -9 -24 116 -79 132 -58 217 -108 259 -152 29
-31 30 -34 29 -128 -1 -142 -65 -358 -146 -496 -16 -27 -23 -44 -15 -37 75 62
207 420 207 560 0 86 -31 147 -68 135 -13 -5 -14 -4 -4 4 29 20 -245 186 -328
198 -19 2 -42 0 -50 -5z"/>
<path d="M1900 1483 c0 -5 64 -39 143 -78 165 -81 187 -104 187 -189 0 -93
-66 -313 -117 -394 -15 -22 -15 -25 -2 -15 41 33 131 281 145 398 10 79 -6
112 -79 166 -83 63 -198 119 -242 119 -19 0 -35 -3 -35 -7z"/>
<path d="M1177 1373 c-18 -18 -1 -42 59 -82 90 -62 167 -140 199 -203 l27 -53
-7 45 c-21 133 -105 265 -184 288 -43 13 -84 15 -94 5z"/>
<path d="M464 1343 c-4 -14 -4 -94 -1 -177 10 -228 44 -359 96 -374 14 -3 58
-7 96 -6 86 0 158 31 193 83 19 30 22 45 19 114 -2 74 -4 81 -32 104 -17 13
-57 38 -90 54 -35 17 -87 57 -126 95 -36 35 -68 62 -72 59 -4 -3 -5 -2 -2 1 7
10 -46 74 -61 74 -7 0 -17 -12 -20 -27z"/>
<path d="M1058 1229 c-31 -18 -20 -35 40 -59 80 -32 163 -84 207 -128 l37 -37
-27 55 c-42 83 -89 135 -145 159 -53 23 -86 26 -112 10z"/>
<path d="M1368 748 c-25 -18 -73 -63 -106 -99 -121 -131 -181 -154 -402 -152
-140 1 -144 0 -122 -17 28 -23 144 -50 216 -50 205 0 515 144 544 253 15 53
-18 96 -74 97 -6 0 -31 -15 -56 -32z"/>
<path d="M543 721 c13 -97 73 -153 191 -178 106 -21 177 2 192 62 7 30 -10 76
-37 101 -19 17 -222 53 -308 54 l-44 0 6 -39z"/>
<path d="M1500 584 c-14 -10 -63 -54 -110 -99 -112 -108 -144 -120 -308 -120
-67 0 -122 -1 -122 -3 0 -2 21 -13 48 -24 62 -28 190 -30 282 -3 142 40 287
129 306 187 8 25 -24 72 -52 76 -10 1 -30 -5 -44 -14z"/>
<path d="M1619 446 c-24 -19 -64 -55 -88 -81 -65 -71 -109 -86 -242 -86 -60 0
-108 -3 -105 -8 10 -16 102 -35 166 -34 67 2 176 30 245 65 62 32 117 79 111
95 -3 8 -1 11 4 8 18 -11 10 42 -8 58 -26 23 -33 22 -83 -17z"/>
</g>
</svg>
